<?xml version="1.0" encoding="iso-8859-1"?>
<!-- Generator: Adobe Illustrator 19.0.0, SVG Export Plug-In . SVG Version: 6.00 Build 0)  -->
<svg version="1.1" id="Layer_1" xmlns="http://www.w3.org/2000/svg" xmlns:xlink="http://www.w3.org/1999/xlink" x="0px" y="0px"
	 viewBox="0 0 481.882 481.882" style="enable-background:new 0 0 481.882 481.882;" xml:space="preserve">
<path style="fill:#EBF0F3;" d="M315.031,0H69.873c-6.024,0-11.445,4.819-11.445,11.445v458.993c0,6.024,4.819,11.445,11.445,11.445
	h342.137c6.024,0,11.445-4.819,11.445-11.445V108.424c0-3.012-1.205-6.024-3.012-7.831L322.861,3.012
	C320.452,1.205,318.042,0,315.031,0z"/>
<path style="fill:#D5D6DB;" d="M330.692,103.605h91.558c-0.602-1.205-1.205-2.409-2.409-3.012l-48.791-48.791L322.861,3.012
	c-1.205-1.205-1.807-1.807-3.012-2.409V92.16C319.247,98.786,324.668,103.605,330.692,103.605z"/>
<path style="fill:#64798A;" d="M350.569,150.588v180.104c0,13.252-12.649,27.106-31.322,32.527
	c-21.082,6.024-41.562-0.602-46.381-15.059c-4.216-14.456,9.035-31.925,30.72-37.948c9.035-2.409,18.071-3.012,25.299-1.205v-94.569
	l-119.266,34.936v116.254l0,0c0,13.252-12.649,27.106-31.322,32.527c-21.082,6.024-41.562-0.602-46.381-15.059
	c-4.216-15.059,9.035-31.925,30.72-37.948c9.035-2.409,18.071-3.012,25.299-1.205V192.753L350.569,150.588z"/>
<g>
</g>
<g>
</g>
<g>
</g>
<g>
</g>
<g>
</g>
<g>
</g>
<g>
</g>
<g>
</g>
<g>
</g>
<g>
</g>
<g>
</g>
<g>
</g>
<g>
</g>
<g>
</g>
<g>
</g>
</svg>
